<mxfile host="app.diagrams.net" modified="2023-05-22T00:38:11.114Z" agent="Mozilla/5.0 (Windows NT 10.0; Win64; x64) AppleWebKit/537.36 (KHTML, like Gecko) Chrome/113.0.0.0 Safari/537.36" version="21.3.2" etag="4q715FPqBPyKosT8leQD" type="github">
  <diagram name="PÃ¡gina-1" id="Te25M8M1SjH45iKxvZun">
    <mxGraphModel>
      <root>
        <mxCell id="0" />
        <mxCell id="1" parent="0" />
      </root>
    </mxGraphModel>
  </diagram>
</mxfile>
